<svg width="39" height="34" viewBox="0 0 39 34" fill="none" xmlns="http://www.w3.org/2000/svg">
    <path
        d="M14.0897 29.6826C16.3192 30.9698 18.8482 31.6475 21.4226 31.6475C23.997 31.6475 26.526 30.9698 28.7555 29.6826C30.985 28.3954 32.8363 26.5441 34.1235 24.3146C35.4107 22.0851 36.0884 19.5561 36.0884 16.9817C36.0884 14.4073 35.4107 11.8783 34.1235 9.6488C32.8363 7.41933 30.985 5.56795 28.7555 4.28076C26.526 2.99357 23.997 2.31592 21.4226 2.31592C18.8482 2.31592 16.3192 2.99357 14.0897 4.28076"
        stroke="white" stroke-width="4" />
    <path
        d="M3.09033 16.9815L1.52859 15.7321L0.529082 16.9815L1.52859 18.2309L3.09033 16.9815ZM19.5893 18.9815C20.6939 18.9815 21.5893 18.0861 21.5893 16.9815C21.5893 15.877 20.6939 14.9815 19.5893 14.9815V18.9815ZM8.86148 6.56604L1.52859 15.7321L4.65207 18.2309L11.985 9.06482L8.86148 6.56604ZM1.52859 18.2309L8.86148 27.397L11.985 24.8983L4.65207 15.7321L1.52859 18.2309ZM3.09033 18.9815H19.5893V14.9815H3.09033V18.9815Z"
        fill="white" />
</svg>